<?xml version="1.0" standalone="no"?><!DOCTYPE svg PUBLIC "-//W3C//DTD SVG 1.1//EN" "http://www.w3.org/Graphics/SVG/1.1/DTD/svg11.dtd" ><svg xmlns="http://www.w3.org/2000/svg"><metadata></metadata><defs><font id="FontForge 2.0 : Ricty Diminished Discord Bold Oblique : 30-12-2016" horiz-adv-x="1000"><font-face font-family="Ricty Diminished Discord" font-weight="700" font-stretch="normal" units-per-em="1000" panose-1="2 11 8 9 2 2 3 2 2 7" ascent="835" descent="-215" x-height="7" bbox="-16 -194 1051 774" underline-thickness="50" underline-position="-125" unicode-range="U+0020-8c37" /><missing-glyph horiz-adv-x="364" d="M73 33 l199 0 l120 600 l-199 0 l-120 -600 ZM33 0 l133 666 l265 0 l-133 -666 l-265 0 Z" /><glyph glyph-name="" unicode=" " d="" /><glyph glyph-name="" unicode="!" d="M286 575 l1 12 q9 43 32 63 q23 21 56 21 q32 0 47 -19 q16 -20 8 -63 q-2 -11 -4 -14 l-101 -377 l-90 0 l51 377 ZM200 0 q-15 8 -23 26 q-7 16 -3 36 q4 20 18 36 q14 17 33 27 q19 10 41 10 q21 0 38 -11 q18 -11 24 -27 q6 -16 2 -35 q-4 -19 -18 -36 q-12 -14 -34 -26 q-19 -10 -41 -10 q-19 0 -37 10 Z" /><glyph glyph-name="" unicode="&quot;" d="M356 675 q-19 -97 -31 -142 q-21 -77 -28 -99 l-18 -56 l-78 0 l4 56 q2 22 12 99 q6 45 24 142 l115 0 ZM529 675 q-19 -97 -32 -142 q-21 -77 -28 -99 l-18 -56 l-78 0 l4 56 q2 22 12 99 q6 45 25 142 l115 0 Z" /><glyph glyph-name="" unicode="#" d="M244 7 l55 169 l-56 0 l-53 -164 l-100 -1 l51 164 l-87 0 l22 78 l92 0 l42 136 l-99 0 l21 79 l103 0 l49 158 l103 1 l-50 -157 l54 0 l49 154 l103 1 l-49 -153 l84 0 l-26 -80 l-84 0 l-42 -135 l89 0 l-21 -78 l-92 0 l-53 -166 l-105 -6 ZM268 255 l55 0 l43 135 l-56 0 l-42 -135 Z" /><glyph glyph-name="" unicode="+" d="M213 28 l35 175 l-166 0 l17 85 l166 0 l32 161 l97 0 l-32 -161 l160 0 l-17 -85 l-160 0 l-35 -175 l-97 0 Z" /><glyph glyph-name="" unicode="," d="M107 -136 q40 31 66 62 q27 32 31 51 q1 6 -3 10 l-12 15 q-18 23 -20 28 q-6 13 -4 30 q4 21 20 41 q12 17 36 29 q20 10 47 10 q24 0 43 -14 q19 -14 27 -37 q8 -23 3 -55 q-9 -45 -54 -102 q-41 -53 -128 -126 l-52 58 Z" /><glyph glyph-name="" unicode="-" d="M103 195 l18 91 l375 0 l-18 -91 l-375 0 Z" /><glyph glyph-name="" unicode="." d="M235 -15 q-20 1 -36 11 q-16 10 -24 28 q-6 18 -2 40 q4 20 18 37 q16 20 34 29 q19 10 41 10 q22 0 38 -10 q14 -9 21 -29 q7 -17 4 -38 q-5 -23 -19 -40 q-14 -17 -33 -27 q-20 -10 -42 -11 Z" /><glyph glyph-name="" unicode="/" d="M131 -47 l-80 42 l444 672 l78 -45 l-442 -669 Z" /><glyph glyph-name="" unicode="0" d="M138 20 q-41 40 -52 112 q-10 75 10 176 q20 101 61 176 q39 72 96 112 q56 39 124 39 q68 0 108 -39 q41 -40 52 -112 q11 -75 -9 -176 q-20 -101 -62 -176 q-39 -72 -96 -112 q-56 -39 -124 -39 q-68 0 -108 39 ZM328 99 q31 30 54 81 q22 52 38 128 q16 76 13 128 q-3 51 -22 81 q-18 28 -52 28 q-34 0 -64 -28 q-31 -30 -54 -81 q-23 -52 -39 -128 q-16 -76 -12 -128 q3 -51 22 -81 q18 -28 52 -28 q34 0 64 28 ZM266 253 q-15 8 -23 26 q-8 17 -4 36 q4 18 18 35 q14 17 34 26 q22 10 39 10 q21 0 36 -10 q16 -10 25 -27 q8 -15 4 -34 q-4 -20 -17 -36 q-14 -17 -34 -26 q-20 -9 -42 -9 q-20 0 -36 9 Z" /><glyph glyph-name="" unicode="1" d="M209 0 l99 496 l-113 -32 l-14 68 l188 91 l75 0 l-125 -623 l-110 0 Z" /><glyph glyph-name="" unicode="2" d="M73 82 q133 106 208 171 q66 58 100 103 q38 50 48 97 q8 41 -13 63 q-21 23 -62 23 q-26 0 -49 -6 q-22 -6 -41 -14 q-16 -7 -23 -16 q-27 -35 -28 -38 l1 -1 q2 0 4 2 q2 2 3 2 q2 0 1 -2 l-7 -9 l-7 4 l-63 56 q46 57 106 89 q58 31 124 31 q54 0 96 -23 q41 -22 57 -64 q17 -41 6 -96 q-11 -53 -46 -102 q-33 -47 -85 -95 q-42 -39 -145 -125 l-47 -39 l204 0 q19 0 24 1 q6 1 14 8 l11 0 l-20 -102 l-387 0 l16 82 Z" /><glyph glyph-name="" unicode="4" d="M272 0 l31 154 l-238 0 l14 70 l350 399 l81 0 l-76 -376 l83 0 l-18 -94 l-83 0 l-31 -153 l-113 0 ZM199 244 l126 0 l37 186 l-163 -186 Z" /><glyph glyph-name="" unicode="5" d="M350 418 q60 0 98 -26 q38 -26 52 -74 q14 -48 1 -117 q-13 -66 -48 -115 q-33 -47 -88 -77 q-52 -28 -115 -28 q-138 0 -177 118 l96 64 l1 0 q0 1 0 3 q0 2 -1 3 l1 -1 q2 -2 2 -3 l6 3 l4 -9 q-1 -2 -2 -2 q-1 0 -4 3 q-2 1 -3 4 l-1 1 l-2 -2 l0 -1 q8 -25 18 -42 q10 -18 29 -29 q20 -11 49 -11 q29 0 55 14 q22 12 43 42 q18 26 26 66 q12 58 -8 90 q-20 33 -63 33 q-30 0 -56 -15 q-28 -16 -54 -45 l-66 31 l89 327 l335 0 l-19 -95 l-237 0 l-33 -121 q41 11 72 11 Z" /><glyph glyph-name="" unicode="8" d="M145 5 q-42 24 -61 65 q-20 44 -10 92 q10 48 51 94 q44 48 98 75 q-34 25 -50 63 q-16 36 -8 77 q9 46 42 84 q33 38 81 61 q48 23 96 23 q51 0 87 -22 q38 -23 55 -59 q16 -38 7 -81 q-8 -39 -41 -79 q-34 -39 -78 -64 q43 -28 66 -74 q22 -44 12 -95 q-10 -52 -47 -93 q-38 -43 -88 -66 q-55 -25 -111 -25 q-58 0 -101 24 ZM393 423 q22 26 27 51 q4 18 -2 33 q-6 15 -23 25 q-15 9 -34 9 q-20 0 -37 -9 q-19 -10 -29 -24 q-12 -15 -16 -32 q-11 -53 63 -96 q30 18 51 43 ZM317 93 q21 9 38 31 q15 18 19 42 q7 36 -14 67 q-23 32 -65 48 q-39 -18 -66 -48 q-28 -29 -35 -64 q-5 -23 3 -43 q8 -19 28 -32 q19 -12 43 -12 q25 0 49 11 Z" /><glyph glyph-name="" unicode=":" d="M227 -15 q-24 0 -40 10 q-16 10 -25 28 q-9 16 -5 39 q4 21 21 39 q19 21 37 30 q22 10 43 10 q20 0 39 -10 q20 -12 27 -29 q9 -20 5 -40 q-5 -23 -19 -39 q-16 -17 -38 -28 q-23 -10 -45 -10 ZM299 344 q-21 0 -39 10 q-18 10 -25 29 q-9 19 -5 39 q4 20 20 39 q16 18 37 29 q22 10 43 10 q20 0 39 -10 q20 -10 27 -28 q9 -18 5 -40 q-3 -21 -18 -39 q-16 -19 -39 -29 q-23 -10 -45 -10 Z" /><glyph glyph-name="" unicode=";" d="M98 -136 q35 26 66 62 q28 32 32 51 q1 6 -3 10 l-12 15 q-14 18 -19 28 q-7 14 -5 30 q5 23 19 41 q12 17 36 29 q20 10 46 10 q23 0 43 -14 q19 -14 29 -38 q10 -24 3 -54 q-9 -46 -56 -102 q-44 -55 -126 -126 l-53 58 ZM299 344 q-21 0 -39 10 q-18 10 -25 29 q-9 19 -5 39 q4 20 20 39 q16 18 37 29 q22 10 43 10 q20 0 39 -10 q20 -10 27 -28 q9 -18 5 -40 q-3 -21 -18 -39 q-16 -19 -39 -29 q-23 -10 -45 -10 Z" /><glyph glyph-name="" unicode="&lt;" d="M461 -41 l-386 256 l12 58 l479 229 l-19 -99 l-344 -160 l279 -177 l-21 -107 Z" /><glyph glyph-name="" unicode="=" d="M100 294 l17 85 l423 0 l-17 -85 l-423 0 ZM63 110 l17 85 l423 0 l-17 -85 l-423 0 Z" /><glyph glyph-name="" unicode="&gt;" d="M29 -41 l21 107 l350 177 l-281 160 l19 99 l391 -229 l-12 -58 l-488 -256 Z" /><glyph glyph-name="" unicode="@" d="M163 24 q-54 37 -75 112 q-21 75 0 181 q21 104 71 177 q48 72 113 108 q66 37 128 37 q95 0 135 -65 q40 -65 14 -195 l-43 -216 l-91 0 l6 31 q-19 -18 -42 -28 q-23 -10 -49 -10 q-37 0 -65 18 q-27 17 -39 50 q-12 31 -4 70 q15 76 75 118 q59 40 169 42 q5 49 -18 77 q-23 29 -67 29 q-37 0 -79 -28 q-42 -28 -74 -82 q-32 -54 -47 -132 q-16 -79 -2 -135 q14 -59 48 -87 q35 -29 86 -29 q61 0 117 41 l25 -74 q-42 -27 -80 -37 q-41 -11 -84 -11 q-74 0 -128 38 ZM358 235 q26 0 44 15 q18 15 30 46 q12 32 23 83 q-39 0 -69 -11 q-29 -10 -46 -28 q-16 -17 -21 -39 q-7 -30 5 -48 q12 -18 34 -18 Z" /><glyph glyph-name="" unicode="a" d="M374 0 l-12 161 l-160 0 l-77 -161 l-115 0 l333 623 l65 0 l83 -623 l-117 0 ZM240 239 l116 0 l-16 207 l-100 -207 Z" /><glyph glyph-name="" unicode="c" d="M427 159 l74 -55 q-46 -59 -105 -91 q-58 -31 -125 -31 q-71 0 -118 36 q-50 37 -66 110 q-17 75 4 180 q23 117 75 190 q53 74 117 108 q64 33 129 33 q72 0 114 -37 q45 -39 60 -105 l-88 -39 l-2 -1 l1 1 q-10 52 -35 71 q-27 20 -65 20 q-73 0 -120 -63 q-48 -64 -69 -173 q-14 -71 -8 -123 q6 -53 33 -86 q26 -32 63 -32 q65 0 131 87 ZM486 464 q1 1 2 1 q1 0 3 -4 q1 -3 3 -5 l-5 -2 l-3 10 ZM497 450 l-1 1 q-1 1 -2 5 l2 1 l1 -7 Z" /><glyph glyph-name="" unicode="d" d="M101 283 l-39 0 l18 92 l39 0 l50 248 l161 0 q81 0 122 -21 q43 -21 67 -66 q47 -86 18 -229 q-30 -149 -113 -227 q-85 -80 -231 -80 l-149 0 l57 283 ZM209 88 q87 0 141 55 q54 55 75 161 q45 226 -118 226 l-48 0 l-31 -155 l94 0 l-18 -92 l-94 0 l-39 -195 l38 0 Z" /><glyph glyph-name="" unicode="e" d="M56 0 l125 623 l406 0 l-20 -96 l-297 0 l-30 -154 l246 0 l-20 -98 l-246 0 l-36 -179 l295 0 l-19 -96 l-404 0 Z" /><glyph glyph-name="" unicode="f" d="M68 0 l125 623 l387 0 l-19 -95 l-275 0 l-30 -146 l222 0 l-18 -94 l-222 0 l-58 -288 l-112 0 Z" /><glyph glyph-name="" unicode="i" d="M73 0 l19 93 l121 0 l87 437 l-115 0 l19 93 l348 0 l-19 -93 l-121 0 l-88 -438 l126 0 l-18 -92 l-359 0 Z" /><glyph glyph-name="" unicode="o" d="M130 22 q-44 39 -58 113 q-14 72 8 178 q21 103 63 175 q43 73 103 112 q60 39 135 39 q74 0 119 -39 q45 -39 59 -112 q14 -72 -7 -175 q-21 -106 -64 -178 q-44 -74 -104 -113 q-62 -40 -135 -40 q-73 0 -119 40 ZM337 102 q31 28 59 87 q26 56 41 130 q14 69 9 121 q-4 53 -25 80 q-21 29 -58 29 q-37 0 -70 -29 q-31 -27 -57 -80 q-25 -52 -39 -121 q-15 -75 -11 -130 q4 -59 23 -87 q21 -30 58 -30 q37 0 70 30 Z" /><glyph glyph-name="" unicode="p" d="M175 623 l211 0 q72 0 113 -25 q42 -26 55 -67 q14 -43 4 -95 q-11 -53 -41 -94 q-32 -43 -81 -66 q-52 -24 -120 -24 l-102 0 l-50 -252 l-114 0 l125 623 ZM327 347 q51 0 79 23 q29 24 37 63 q8 41 -11 66 q-19 25 -68 25 l-95 0 l-36 -177 l94 0 Z" /><glyph glyph-name="" unicode="r" d="M172 623 l197 0 q113 0 155 -49 q43 -50 25 -137 q-7 -35 -28.5 -69 q-21.5 -34 -53.5 -60 q-33 -27 -70 -37 l92 -271 l-126 0 l-77 258 l-73 0 l-52 -258 l-114 0 l125 623 ZM322 353 q47 0 76 23 q28 22 36 61 q9 44 -10 65 q-20 22 -68 22 l-90 0 l-34 -171 l90 0 Z" /><glyph glyph-name="" unicode="t" d="M189 0 l105 526 l-169 0 l20 97 l459 0 l-20 -97 l-176 0 l-105 -526 l-114 0 Z" /><glyph glyph-name="" unicode="u" d="M102 48 q-42 63 -21 172 l81 403 l120 0 l-3 -11 q-8 -8 -9 -13 q-4 -11 -6 -24 l-71 -356 q-14 -68 2 -105 q15 -35 71 -35 q58 0 87 36 q30 37 44 107 l81 401 l110 0 l-80 -400 q-23 -117 -92.5 -177 q-69.5 -60 -169.5 -60 q-102 0 -144 62 Z" /><glyph glyph-name="" unicode="x" d="M21 0 l232 318 l-105 305 l122 0 l67 -204 l146 204 l116 0 l-216 -304 l111 -319 l-126 0 l-71 214 l-154 -214 l-122 0 Z" /><glyph glyph-name="" unicode="y" d="M201 0 l49 246 l-116 377 l125 0 l77 -252 l165 252 l121 0 l-254 -378 l-49 -245 l-118 0 Z" /><glyph glyph-name="" unicode="a" d="M473 436 q47 -47 26 -152 l-57 -284 l-107 0 l8 42 q-31 -24 -73 -40 q-38 -14 -83 -14 q-73 0 -104 36 q-31 36 -19 97 q10 50 49 85 q41 37 101 54 q64 18 146 18 l34 0 q8 60 -13 87 q-19 26 -70 26 q-31 0 -70 -17 q-38 -17 -74 -47 l-42 74 q50 39 107 61 q53 20 103 20 q92 0 138 -46 ZM325 104 q37 33 54 99 l-22 0 q-85 0 -130 -19 q-43 -18 -51 -58 q-5 -27 11.5 -40 q16.5 -13 52.5 -13 q51 0 85 31 Z" /><glyph glyph-name="" unicode="b" d="M198 0 q-28 15 -46 45 l-24 -45 l-78 0 l135 675 l120 0 l-2 -11 q-6 -6 -9 -13 q-4 -10 -7 -24 l-40 -200 q25 23 58 37 q30 13 60 13 q54 0 94 -27 q39 -26 55 -79 q17 -52 2 -128 q-16 -81 -58 -141 q-41 -59 -91.5 -88 q-50.5 -29 -103.5 -29 q-36 0 -65 15 ZM319 93 q27 16 47 49 q23 37 34 86 q14 72 -4 114 q-18 44 -70 44 q-49 0 -77 -40 q-27 -38 -40 -107 q-17 -86 -2 -123 q15 -38 61 -38 q26 0 51 15 Z" /><glyph glyph-name="" unicode="c" d="M463 306 l-1 0 q-1 0 -4 4 l-3 -3 l-7 7 l0 1 q0 1 1 1 q3 0 9 -6 l4 3 l-1 0 q-13 34 -40 53 q-25 18 -69 18 q-33 0 -66 -20 q-33 -20 -56 -55 q-23 -35 -33 -82 q-8 -42 1 -77 q9 -34 32 -52 q23 -18 60 -18 q34 0 65 14 q35 16 66 48 l50 -75 q-45 -41 -97 -63 q-48 -20 -103 -20 q-67 0 -116 32 q-48 32 -66.5 87 q-18.5 55 -4.5 126 q14 69 55 126 q40 56 102 89 q61 33 129 33 q61 0 104 -23 q46 -25 65 -67 l-77 -73 l0 -1 q1 -6 1 -7 Z" /><glyph glyph-name="" unicode="d" d="M130 12 q-39 27 -55 82 q-16 52 0 132 q15 77 54 134 q38 56 90 87 q51 30 104 30 q29 0 56 -13 q29 -14 43 -34 l49 245 l122 0 l-2 -11 q-6 -6 -9 -13 q-4 -10 -7 -24 l-116 -571 q-2 -12 -4 -30 q-1 -12 4 -26 l-109 0 q-4 11 -3 24 q0 7 5 32 q-22 -35 -57.5 -53 q-35.5 -18 -68.5 -18 q-56 0 -96 27 ZM385 239 q14 68 2 107 q-11 40 -62 40 q-53 0 -87.5 -44 q-34.5 -44 -48.5 -114 q-10 -52 -3 -86 q8 -32 30 -49 q20 -15 45 -15 q92 0 124 161 Z" /><glyph glyph-name="" unicode="e" d="M267 -16 q-67 0 -114.5 29 q-47.5 29 -66.5 84 q-19 56 -4 130 q15 75 56 133 q39 56 95 86 q57 31 120 31 q55 0 96 -26 q38 -24 56 -77 q17 -51 2 -125 q-1 -5 -9 -33 l-4 -14 l-306 0 q-6 -63 21 -96 q27 -33 72 -33 q32 0 68 15 q36 15 62 42 l50 -62 q-88 -84 -194 -84 ZM402 284 q6 31 0 54 q-7 25 -25 40 q-18 15 -46 15 q-42 0 -74 -29 q-34 -31 -48 -80 l193 0 Z" /><glyph glyph-name="" unicode="f" d="M536 546 l3 2 l9 -5 l-3 -4 l-9 6 l0 1 ZM550 546 q4 -5 4 -6 l-6 3 l2 3 ZM550 546 l-1 0 q-25 27 -44 38 q-18 10 -45 10 q-44 0 -74 -27 q-30 -27 -41 -81 l-4 -19 l143 0 l-17 -89 l-143 0 l-76 -378 l-109 0 l76 378 l-101 0 l17 89 l101 0 l4 18 q12 61 47 107 q34 45 84 68 q49 23 102 23 q90 0 142 -65 l-61 -71 l0 -1 Z" /><glyph glyph-name="" unicode="g" d="M449 -18 q-8 -42 -39 -78 q-30 -35 -84 -56 q-54 -21 -128 -21 q-89 0 -128.5 31 q-39.5 31 -29.5 84 q5 27 25 53 q17 23 48 41 q-38 24 -28 72 q5 26 23 48 q17 21 48 38 q-21 23 -29.5 56 q-8.5 33 -1.5 68 q9 44 39 84 q28 36 74 60 q45 23 91 23 q30 0 55 -9 q22 -8 44 -28 q28 13 60 22 q34 9 66 9 q12 0 15 -1 l-5 -85 q-24 5 -48 5 q-30 0 -53 -6 q11 -35 4 -74 q-9 -44 -40 -84 q-28 -36 -74 -60 q-45 -23 -91 -23 q-36 0 -66 15 q-9 -8 -11 -13 q-3 -4 -5 -14 q-4 -18 28 -27 q36 -10 114 -10 q151 0 127 -120 ZM273 384 q-20 -11 -32 -28 q-13 -18 -16 -38 q-4 -22 1 -38 q6 -18 20 -28 q14 -10 34 -10 q20 0 38 10 q20 11 32 28 q13 18 17 38 q4 20 -2 38 q-5 17 -20 28 q-14 10 -34 10 q-20 0 -38 -10 ZM308 -74 q30 15 36 42 q3 16 -3 24 q-6 10 -21 14 q-14 4 -47 4 q-69 0 -104 7 q-14 -10 -22 -23 q-8 -12 -12 -28 q-6 -29 20 -42 q27 -14 75 -14 q46 0 78 16 Z" /><glyph glyph-name="" unicode="h" d="M195 675 l121 0 l-2 -11 q-8 -8 -10 -13 q-4 -11 -6 -24 l-41 -208 q31 29 65 43 q36 15 68 15 q75 0 108 -47 q32 -45 12 -147 l-57 -283 l-113 0 l56 282 q10 52 -2 78 q-13 25 -44 25 q-29 0 -54 -15 q-25 -15 -44 -41 q-18 -25 -25 -59 l-54 -270 l-113 0 l135 675 Z" /><glyph glyph-name="" unicode="i" d="M326 557 q-14 9 -20 24 q-7 17 -3 33 q6 30 29.5 48 q23.5 18 53.5 18 q18 0 32 -9 q14 -9 21 -25 q7 -17 4 -32 q-3 -16 -17 -33 q-12 -15 -31 -24 q-18 -9 -36 -9 q-18 0 -33 9 ZM89 0 l18 90 l112 0 l57 287 l-107 0 l18 90 l219 0 l-75 -377 l102 0 l-18 -90 l-326 0 Z" /><glyph glyph-name="" unicode="j" d="M467 467 l-86 -434 q-15 -73 -48 -119 q-33 -46 -80 -69 q-45 -22 -99 -22 q-51 0 -86 19 q-36 20 -62 57 l77 80 l1 1 l1 -1 q28 -61 88 -61 q36 0 58.5 24 q22.5 24 33.5 77 l71 357 l-162 0 l18 91 l275 0 ZM82 -15 l0 1 l1 0 l2 -1 l2 -2 l-3 -3 q-2 3 -2 5 ZM384 557 q-14 9 -20 24 q-7 17 -3 33 q6 30 29.5 48 q23.5 18 53.5 18 q18 0 32 -9 q14 -9 21 -25 q7 -17 4 -32 q-3 -16 -17 -33 q-12 -15 -31 -24 q-18 -9 -36 -9 q-18 0 -33 9 ZM87 -17 l3 3 l8 -7 q0 -1 -2 -2 q-2 0 -9 6 Z" /><glyph glyph-name="" unicode="k" d="M253 211 l-45 -36 l-35 -175 l-113 0 l135 675 l121 0 l-2 -11 q-8 -8 -10 -13 q-4 -11 -6 -24 l-66 -332 l214 177 q36 -8 56 -8 l73 0 l-228 -184 l155 -279 l-138 -5 l-111 215 Z" /><glyph glyph-name="" unicode="l" d="M208 675 l235 0 l-17 -87 l-101 -501 l122 0 l-17 -87 l-235 0 l17 87 l101 501 l-122 0 l17 87 Z" /><glyph glyph-name="" unicode="m" d="M126 472 l96 0 l-5 -29 q20 22 44 33 q24 11 46 11 q26 0 43.5 -13 q17.5 -13 25.5 -43 q24 29 49 42 q26 14 57 14 q52 0 66 -35 q13 -33 -1 -107 l-69 -345 l-104 0 l65 326 q8 41 4 56 q-5 17 -19 17 q-38 0 -57 -92 l-61 -307 l-103 0 l64 321 q9 43 4 61 q-5 17 -17 17 q-19 0 -34 -20 q-15 -20 -25 -69 l-62 -310 l-101 0 l94 472 Z" /><glyph glyph-name="" unicode="n" d="M153 467 l113 0 l-9 -48 q34 29 67 43 q37 15 77 15 q65 0 97 -47 q31 -46 11 -147 l-57 -283 l-112 0 l56 282 q10 52 -4 78 q-14 25 -52 25 q-24 0 -47 -9 q-21 -8 -38 -29 q-17 -21 -22 -47 l-60 -300 l-113 0 l93 467 Z" /><glyph glyph-name="" unicode="o" d="M248 -16 q-61 0 -106.5 32 q-45.5 32 -62.5 88 q-17 58 -3 129 q14 70 53 124 q42 57 99 88 q58 32 118 32 q60 0 106 -32 q44 -31 63 -88 q18 -54 5 -124 q-14 -71 -55 -129 q-39 -56 -97.5 -88 q-58.5 -32 -119.5 -32 ZM327 94 q28 20 49 56 q21 37 31 83 q9 47 2 83 q-6 33 -27.5 52 q-21.5 19 -53.5 19 q-31 0 -59 -19 q-26 -17 -47.5 -53 q-21.5 -36 -30.5 -82 q-10 -49 -4 -84 q6 -36 26 -55 q21 -20 53 -20 q32 0 61 20 Z" /><glyph glyph-name="" unicode="p" d="M147 467 l108 0 l-11 -58 q27 34 62 52 q32 16 71 16 q51 0 90 -29 q37 -28 52 -84 q15 -57 -1 -133 q-16 -82 -53 -135 q-38 -55 -86.5 -83 q-48.5 -28 -98.5 -28 q-38 0 -64 16 q-27 17 -39 50 l-43 -218 l-112 0 l125 634 ZM329 94 q25 16 46.5 53 q21.5 37 31.5 90 q13 66 -1.5 107 q-14.5 41 -63.5 41 q-51 0 -84 -43 q-31 -42 -46 -115 q-15 -74 3 -113 q17 -37 58 -37 q30 0 56 17 Z" /><glyph glyph-name="" unicode="q" d="M341 32 q-22 -21 -56 -35 q-32 -13 -62 -13 q-53 0 -93 32 q-37 30 -53 89 q-16 57 -1 129 q14 74 50 128 q36 54 88 85 q51 30 108 30 q28 0 58 -13 q30 -13 45 -35 l7 38 l108 0 l-126 -634 l-112 0 l39 199 ZM334 118 q30 37 46 117 q16 80 -2 115 q-19 36 -63 36 q-26 0 -51 -18 q-26 -18 -46 -51 q-20 -33 -28 -79 q-9 -45 -3 -82 q6 -38 25 -57 q19 -20 46 -20 q44 0 76 39 Z" /><glyph glyph-name="" unicode="r" d="M46 87 l60 0 l58 290 l-58 0 l18 90 l173 0 l-14 -71 q31 41 71 61 q41 21 84 21 q33 0 64 -14 q32 -14 52 -38 l-53 -86 l-13 14 q-17 17 -26 23 q-12 9 -26 13 q-17 5 -42 5 q-24 0 -55 -13 q-28 -12 -50 -38 q-23 -27 -32 -67 l-38 -190 l86 0 l-17 -87 l-259 0 l17 87 Z" /><glyph glyph-name="" unicode="s" d="M435 244 q29 -18 39 -43 q10 -25 3 -63 q-8 -42 -40 -76 q-32 -35 -77 -56 q-48 -22 -98 -22 q-71 0 -120 18 q-46 17 -82 61 l63 82 l0 1 l1 -1 q27 -38 63 -54 q39 -17 94 -17 q80 0 90 53 q3 15 -4 28 q-7 12 -26 21 q-26 12 -56 21 q-76 21 -115 53 q-38 31 -26 88 q8 41 36 72 q28 31 72 49 q44 18 99 18 q55 0 97 -18 q42 -18 72 -54 l-73 -79 l-1 0 q-15 28 -44 45 q-28 16 -67 16 q-31 0 -52 -10 q-22 -11 -25 -28 q-3 -14 5 -27 q9 -12 29 -21 q17 -7 60 -22 q55 -18 83 -35 ZM433 326 q0 1 1 1 q1 0 5 -3 l3 -2 l1 -1 l-2 -2 l-8 6 l0 1 ZM449 318 l-2 1 l-4 2 l4 4 q2 -6 2 -7 ZM120 151 l0 1 l1 0 l5 -3 l-3 -3 q-3 4 -3 5 ZM126 149 l3 4 l8 -6 l0 -1 q0 -1 -1 -1 q-3 0 -5 1 l-5 3 Z" /><glyph glyph-name="" unicode="t" d="M463 42 q-43 -27 -84 -42 q-39 -14 -88 -14 q-73 0 -103 43 q-30 42 -9 148 q5 27 15 59 l36 140 l-101 0 l20 91 l105 0 l28 109 l127 21 l0 -12 l-1 -1 q-1 -1 -2.5 -2.5 q-1.5 -1.5 -2.5 -3.5 q-6 -6 -10 -12 q-3 -5 -6 -19 l-23 -80 l143 0 l-20 -91 l-143 0 l-37 -133 q-8 -33 -14 -55 q-12 -62 -3 -86 q11 -25 43 -25 q30 0 59 12 q28 12 65 39 l6 -86 Z" /><glyph glyph-name="" unicode="u" d="M202 -20 q-77 0 -107 46 q-30 46 -9 149 l58 292 l110 0 l-58 -292 q-10 -51 2.5 -77 q12.5 -26 43.5 -26 q30 0 54 14 q26 15 45 42 q18 26 24 59 l56 280 l113 0 l-78 -391 q-7 -36 -8 -46 q-1 -15 3 -30 l-109 0 q-4 13 -3 24 q1 16 4 30 q-26 -34 -67 -54 q-41 -20 -74 -20 Z" /><glyph glyph-name="" unicode="v" d="M551 467 q-10 -42 -31 -82 q-30 -57 -59 -104 l-167 -281 l-92 0 l-84 467 l111 0 l49 -342 l101 169 q37 67 49 95 q17 39 24 78 l99 0 Z" /><glyph glyph-name="" unicode="w" d="M101 467 l110 0 l-19 -330 l114 276 l69 0 l11 -275 q35 99 52 167 q22 87 31 131 l6 31 l106 0 q-44 -140 -80 -241 q-48 -133 -85 -226 l-99 0 l-9 260 l-110 -260 l-102 0 l5 467 Z" /><glyph glyph-name="" unicode="x" d="M25 0 l208 237 l-113 230 l126 0 l65 -151 l121 151 l121 0 l-194 -227 l120 -240 l-128 0 l-70 158 l-128 -158 l-128 0 Z" /><glyph glyph-name="" unicode="y" d="M547 467 q-11 -45 -28 -81 q-20 -42 -53 -99 l-180 -320 q-45 -78 -91 -111 q-46 -33 -105 -33 q-32 0 -57 11 q-23 10 -49 35 l52 80 l1 1 l1 -1 l8 -8 q15 -15 29 -24 q12 -8 29 -8 q24 0 51 25 q24 22 53 68 l-84 465 l109 0 l52 -328 l94 167 q21 40 38 80 q15 37 22 67 q2 11 1 14 l107 0 ZM51 -49 q0 -1 -2 -1 q-1 0 -10 3 l3 5 l10 -5 l-1 -2 ZM37 -50 l-4 5 l6 -2 l-2 -3 Z" /><glyph glyph-name="" unicode="z" d="M193 287 l13 64 l73 -59 l80 80 l-223 0 l19 95 l373 0 l-14 -70 l-161 -164 l34 -28 l-13 -64 l-63 51 l-96 -98 l213 0 q13 0 23 2 q6 1 16 7 l11 0 l-21 -103 l-414 0 l14 70 l181 181 l-45 36 Z" /><glyph glyph-name="" unicode="{" d="M201 -142 q-44 17 -61 56 q-17 40 -3 112 l20 84 q11 48 -1 66 q-12 18 -40 18 l-42 0 l18 89 l41 0 q31 0 49 19 q19 20 28 61 l16 94 q18 89 76 135 q57 45 151 45 l81 0 l-18 -90 l-98 0 q-32 0 -51 -20 q-20 -21 -28 -60 l-16 -93 q-9 -45 -35 -79 q-27 -36 -63 -56 q26 -19 38 -57 q12 -37 2 -86 l-16 -70 q-10 -50 7 -74 q16 -23 66 -23 l70 0 l-18 -88 l-56 0 q-72 0 -117 17 Z" /><glyph glyph-name="" unicode="}" d="M24 -159 l18 88 l70 0 q49 0 74 23 q27 24 37 74 l12 70 q10 48 36 85 q29 40 62 58 q-31 21 -42 56 q-11 34 -2 79 l20 93 q8 39 -4 60 q-11 20 -43 20 l-98 0 l18 90 l81 0 q94 0 133 -45 q40 -46 22 -135 l-20 -94 q-8 -41 2 -61 q11 -19 43 -19 l41 0 l-18 -89 l-42 0 q-28 0 -46 -18 q-18 -18 -29 -66 l-14 -84 q-14 -72 -47 -112 q-33 -39 -83 -56 q-51 -17 -125 -17 l-56 0 Z" /><glyph glyph-name="" unicode="&#x30a3;" d="M233 288 q229 32 444 153 q88 51 151 103 l49 -78 q-105 -86 -238 -150 l-72 -361 l-117 0 l61 305 q-142 -55 -283 -73 l5 101 Z" /><glyph glyph-name="" unicode="&#x30a6;" d="M246 598 l286 0 l27 136 l121 0 l-27 -136 l297 0 l-34 -170 q-66 -328 -392 -429 q-105 -32 -232 -38 l5 109 q319 17 434 197 q44 68 63 161 l12 63 l-464 0 l-40 -200 l-118 0 l62 307 Z" /><glyph glyph-name="" unicode="&#x30af;" d="M779 519 l-303 0 q-86 -146 -233 -263 l-71 73 q159 130 240 311 q19 39 30 76 l117 -6 q-14 -43 -29 -82 l402 0 l-5 -21 q-66 -331 -256 -484 q-173 -137 -483 -162 l4 109 q261 26 391 124 q133 99 194 315 l2 10 Z" /><glyph glyph-name="" unicode="&#x30b5;" d="M192 558 l150 0 l31 155 l118 0 l-31 -155 l255 0 l31 155 l123 0 l-31 -155 l150 0 l-22 -109 l-150 0 l-10 -51 q-44 -220 -166 -321 q-124 -99 -368 -120 l0 109 q193 18 279 81 q80 58 118 192 q10 38 14 59 l10 51 l-255 0 l-37 -185 l-118 0 l37 185 l-150 0 l22 109 Z" /><glyph glyph-name="" unicode="&#x30b9;" d="M298 555 l22 112 l582 0 l-22 -112 q-95 -145 -229 -267 q116 -127 205 -241 l-99 -82 q-114 143 -204 241 q-188 -147 -398 -236 l-34 100 q355 159 569 414 q31 36 55 71 l-447 0 Z" /><glyph glyph-name="" unicode="&#x30ba;" d="M1051 637 l-95 -42 q-41 126 -44 135 l96 44 q30 -88 43 -137 ZM271 546 l23 112 l499 0 q-4 13 -21 59 l95 43 q27 -82 42 -134 l-42 -18 l-13 -62 q-93 -143 -229 -268 q102 -113 206 -240 l-100 -83 q-95 119 -205 242 q-189 -147 -397 -236 l-35 100 q354 159 569 414 q31 36 55 71 l-447 0 Z" /><glyph glyph-name="" unicode="&#x30c9;" d="M350 694 l128 0 l-51 -254 q224 -56 465 -152 l-61 -115 q-208 84 -429 142 l-74 -372 l-128 0 l150 751 ZM944 555 l-115 -50 q-14 46 -54 161 l115 53 q34 -99 54 -164 ZM776 522 l-112 -49 q-26 84 -54 158 l113 51 q30 -85 53 -160 Z" /><glyph glyph-name="" unicode="&#x30d5;" d="M262 652 l698 0 l-4 -21 q-76 -379 -323 -538 q-164 -105 -410 -127 l1 113 q274 26 412 154 q114 105 170 304 l-567 0 l23 115 Z" /><glyph glyph-name="" unicode="&#x30d7;" d="M845 496 q54 0 92 45 q22 26 29 55 q11 54 -28 83 q-23 17 -53 17 q-53 0 -91 -44 q-22 -26 -29 -56 q-11 -54 29 -83 q22 -17 51 -17 ZM901 774 q85 0 124 -64 q31 -50 18 -114 q-16 -82 -90 -136 q-42 -30 -90 -39 q-113 -291 -386 -399 q-122 -48 -290 -65 l1 113 q274 26 414 156 q88 82 142 218 q-43 30 -55 84 l-478 0 l23 115 l470 0 q36 76 112 110 q41 21 85 21 Z" /><glyph glyph-name="" unicode="&#x30e9;" d="M293 567 l22 109 l596 0 l-22 -109 l-596 0 ZM202 440 l717 0 l-4 -21 q-68 -340 -429 -431 q-111 -27 -235 -34 l3 110 q320 17 448 164 q39 46 62 102 l-584 0 l22 110 Z" /><glyph glyph-name="" unicode="&#x30ea;" d="M240 279 l82 410 l127 0 l-82 -410 l-127 0 ZM780 689 l130 0 l-50 -249 q-56 -278 -245 -396 q-128 -80 -329 -99 l-4 112 q210 25 307 105 q94 76 134 245 l6 30 l51 252 Z" /><glyph glyph-name="" unicode="&#x30eb;" d="M617 94 q122 30 191 151 q37 65 61 150 l113 -16 q-120 -411 -496 -413 l-21 0 l144 719 l126 0 l-118 -591 ZM367 685 l123 0 l-37 -185 q-53 -264 -120 -374 q-53 -88 -151 -140 q-25 -14 -57 -28 l-45 102 q88 40 128 86 q50 57 87 201 q14 52 35 153 l37 185 Z" /><glyph glyph-name="" unicode="&#x30ed;" d="M269 105 l460 0 l89 446 l-460 0 l-89 -446 ZM247 -6 l-128 0 l133 668 l716 0 l-133 -668 l-588 0 Z" /><glyph glyph-name="" unicode="&#x30ef;" d="M261 662 l701 0 l-39 -195 q-86 -431 -555 -494 q-47 -6 -100 -9 l5 112 q275 16 399 135 q94 89 127 256 l16 79 l-456 0 l-44 -221 l-121 0 l67 337 Z" /><glyph glyph-name="" unicode="&#x30f3;" d="M873 595 l110 -25 q-156 -412 -543 -536 q-120 -38 -266 -52 l6 118 q324 32 501 199 q118 112 192 296 ZM254 573 l80 109 q118 -63 253 -146 l-82 -107 q-113 70 -251 144 Z" /><glyph glyph-name="" unicode="&#x30fc;" d="M242 276 l-95 53 l68 102 l61 -33 q2 0 22 -9 l25 0 l609 0 l-25 -122 l-621 0 q-1 0 -24 2 l-20 7 Z" /><glyph glyph-name="" unicode="&#x526f;" d="M911 728 l113 0 l-132 -659 q-19 -95 -40 -120 q-22 -26 -82 -27 q-10 -1 -35 -1 q-51 0 -119 4 l15 107 q102 -5 104 -5 q27 0 33 7 q6 7 11 35 l132 659 ZM617 115 l115 577 l107 0 l-115 -577 l-107 0 ZM200 622 l20 98 l487 0 l-20 -98 l-487 0 ZM182 -47 l-7 -34 l-112 0 l80 403 l475 0 l-80 -403 l-110 0 l7 34 l-253 0 ZM225 172 l78 0 l12 60 l-78 0 l-12 -60 ZM211 98 l-13 -62 l78 0 l13 62 l-78 0 ZM387 98 l-13 -62 l77 0 l13 62 l-77 0 ZM401 172 l77 0 l12 60 l-77 0 l-12 -60 ZM293 359 l-113 0 l45 225 l417 0 l-45 -225 l-304 0 ZM308 436 l193 0 l13 66 l-193 0 l-13 -66 Z" /><glyph glyph-name="" unicode="&#x696d;" d="M909 198 l-18 -90 l-250 0 q107 -52 271 -92 l-70 -92 q-186 59 -291 129 l-28 -138 l-124 0 l28 138 q-137 -71 -343 -129 l-34 92 q182 40 309 92 l-250 0 l18 90 l329 0 l8 40 l-290 0 l16 81 l290 0 l8 40 l-320 0 l17 84 l173 0 q-2 7 -8 37 q-6 30 -10 50 l-156 0 l19 96 l93 0 q-15 40 -27 75 l105 33 q25 -56 39 -108 l49 0 l24 120 l107 0 l-24 -120 l68 0 l24 120 l107 0 l-24 -120 l54 0 q49 63 77 108 l94 -27 q-45 -63 -57 -81 l91 0 l-19 -96 l-152 0 q-25 -46 -53 -87 l170 0 l-17 -84 l-320 0 l-8 -40 l290 0 l-16 -81 l-290 0 l-8 -40 l329 0 ZM654 443 q26 37 56 87 l-247 0 q5 -28 11 -56 q6 -28 7 -31 l173 0 Z" /><glyph glyph-name="" unicode="&#x6e0b;" d="M351 217 q-87 -163 -196 -287 q-4 -3 -9 -9 l-82 61 q112 126 199 283 l88 -48 ZM275 315 q-69 78 -140 139 l83 81 q81 -68 137 -131 l11 56 l85 0 l49 245 l115 0 l-49 -245 l90 0 l59 295 l121 0 l-18 -91 l194 0 l-20 -100 l-194 0 l-21 -104 l224 0 l-21 -103 l-89 0 l49 -69 q-112 -85 -241 -144 q122 -61 210 -137 l-82 -103 q-88 77 -222 146 l84 98 l1 0 l-49 87 q114 54 214 122 l-383 0 q80 -54 145 -120 l-93 -90 q-75 79 -167 138 l72 72 l-84 0 l7 33 l-77 -75 ZM215 654 l83 81 q65 -55 128 -122 l-85 -82 q-55 62 -126 123 ZM260 7 q174 58 283 129 l26 -101 q-125 -82 -281 -131 l-28 103 Z" /><glyph glyph-name="" unicode="&#x7cfb;" d="M606 101 l81 82 q116 -87 205 -173 l-80 -82 q-106 99 -206 173 ZM68 14 q143 74 254 160 l56 -73 q-126 -98 -266 -170 l-44 83 ZM756 392 l107 44 q50 -125 88 -243 l-104 -43 q-14 42 -19 56 l-251 -9 l-54 -273 l-125 0 l53 268 l-346 -13 l17 100 l217 8 l47 27 q-84 96 -160 174 l92 74 q18 -18 55 -57 q58 36 143 94 q-125 -5 -259 -6 l13 100 q384 0 655 41 q19 4 28 5 l4 -97 q-122 -20 -266 -32 q-114 -86 -253 -175 q3 -2 6 -6 q4 -3 8 -9 q4 -6 8 -10 q7 -8 17 -19 q10 -11 13 -14 q171 107 326 222 l68 -75 q-171 -127 -345 -230 l253 9 q-9 23 -21 53 q-12 30 -15 36 Z" /><glyph glyph-name="" unicode="&#x8c37;" d="M677 55 l30 152 l-376 0 l-30 -152 l376 0 ZM901 442 q-100 111 -227 212 l88 86 q132 -104 230 -216 l-91 -82 ZM531 662 q-129 -130 -326 -219 l-39 92 q174 84 296 197 l69 -70 ZM282 -39 l-8 -43 l-121 0 l61 307 q-2 -1 -30 -15 q-28 -14 -44 -22 l-28 97 q203 100 363 227 q12 9 35 28 l152 0 q112 -137 261 -233 q5 -3 17 -11 q12 -8 18 -11 l-66 -97 q-36 21 -60 37 l-61 -307 l-121 0 l8 43 l-376 0 ZM727 303 q-87 74 -156 163 q-100 -86 -220 -163 l376 0 Z" /></font>
</defs>
</svg>
