<?xml version="1.0" standalone="no"?><!DOCTYPE svg PUBLIC "-//W3C//DTD SVG 1.1//EN" "http://www.w3.org/Graphics/SVG/1.1/DTD/svg11.dtd" ><svg xmlns="http://www.w3.org/2000/svg"><metadata></metadata><defs><font id="FontForge 2.0 : Ricty Diminished Bold : 30-12-2016" horiz-adv-x="1000"><font-face font-family="Ricty Diminished" font-weight="700" font-stretch="normal" units-per-em="1000" panose-1="2 11 8 9 2 2 3 2 2 7" ascent="835" descent="-215" x-height="7" bbox="8 -177 924 774" underline-thickness="50" underline-position="-125" unicode-range="U+0020-8c37" /><missing-glyph horiz-adv-x="364" d="M33 0 l0 666 l265 0 l0 -666 l-265 0 ZM66 33 l199 0 l0 600 l-199 0 l0 -600 Z" /><glyph glyph-name="" unicode=" " d="" /><glyph glyph-name="" unicode="!" d="M200 0 q-17 8 -28 26 q-10 16 -10 36 q0 20 10 36 q11 17 28 27 q17 10 39 10 q21 0 40 -11 q19 -11 29 -27 q10 -16 10 -35 q0 -19 -11 -36 q-9 -14 -29 -26 q-17 -10 -39 -10 q-19 0 -39 10 ZM171 575 l-1 12 q0 43 19 63 q19 21 52 21 q32 0 51 -19 q20 -20 20 -63 q0 -11 -1 -14 l-26 -377 l-90 0 l-24 377 Z" /><glyph glyph-name="" unicode="&quot;" d="M225 665 q0 -84 -3 -123 q-5 -67 -7 -86 l-6 -49 l-68 0 l-6 49 q-2 19 -7 86 q-3 39 -3 123 l100 0 ZM375 665 q0 -84 -3 -123 q-5 -67 -7 -86 l-6 -49 l-68 0 l-6 49 q-2 19 -7 86 q-3 39 -3 123 l100 0 Z" /><glyph glyph-name="" unicode="#" d="M217 255 l55 0 l16 135 l-56 0 l-15 -135 ZM243 7 l21 169 l-56 0 l-20 -164 l-100 -1 l18 164 l-87 0 l6 78 l92 0 l15 136 l-99 0 l5 79 l103 0 l18 158 l103 1 l-19 -157 l54 0 l18 154 l103 1 l-18 -153 l84 0 l-10 -80 l-84 0 l-15 -135 l89 0 l-6 -78 l-92 0 l-20 -166 l-103 -6 Z" /><glyph glyph-name="" unicode="+" d="M207 108 l0 175 l-166 0 l0 85 l166 0 l0 161 l97 0 l0 -161 l160 0 l0 -85 l-160 0 l0 -175 l-97 0 Z" /><glyph glyph-name="" unicode="," d="M149 -118 q30 27 47 54 q18 28 18 44 q0 5 -4 9 l-13 13 q-20 20 -23 24 q-8 11 -8 26 q0 18 10 36 q8 15 26 25 q16 9 39 9 q21 0 40 -12 q19 -12 31 -33 q11 -19 11 -47 q0 -39 -29 -89 q-26 -46 -89 -110 l-56 51 Z" /><glyph glyph-name="" unicode="-" d="M64 275 l0 91 l375 0 l0 -91 l-375 0 Z" /><glyph glyph-name="" unicode="." d="M240 -13 q-18 0 -34 9 q-16 9 -25 25 q-9 16 -9 34 q0 18 9 33 q10 17 25 25 q16 9 34 9 q19 0 34 -9 q14 -8 24 -25 q9 -15 9 -33 q0 -20 -9 -35 q-9 -15 -24 -24 q-15 -9 -34 -9 Z" /><glyph glyph-name="" unicode="/" d="M140 -47 l-88 42 l310 672 l87 -45 l-309 -669 Z" /><glyph glyph-name="" unicode="0" d="M308 99 q25 30 38 81 q13 52 13 128 q0 40 -5 80 l-193 -231 q13 -40 37 -64 q22 -22 52 -22 q34 0 58 28 ZM192 517 q-25 -30 -38 -81 q-13 -52 -13 -128 q0 -42 4 -75 l193 229 q-14 41 -36 62 q-22 21 -52 21 q-34 0 -58 -28 ZM366 596 q49 -40 74 -112 q26 -75 26 -176 q0 -101 -26 -176 q-25 -72 -74 -112 q-48 -39 -116 -39 q-68 0 -116 39 q-49 40 -74 112 q-26 75 -26 176 q0 101 26 176 q25 72 74 112 q48 39 116 39 q68 0 116 -39 Z" /><glyph glyph-name="" unicode="1" d="M209 0 l0 496 l-107 -32 l-27 68 l169 91 l75 0 l0 -623 l-110 0 Z" /><glyph glyph-name="" unicode="2" d="M57 82 q112 106 173 171 q54 58 80 103 q28 50 28 97 q0 41 -25 63 q-26 23 -67 23 q-26 0 -48 -6 q-21 -6 -38 -14 q-15 -7 -20 -16 q-20 -35 -20 -38 l1 -1 q1 0 3 2 q2 2 3 2 q2 0 2 -2 l-5 -9 l-8 4 l-74 56 q35 57 88 89 q52 31 118 31 q54 0 100 -23 q45 -22 70 -64 q25 -41 25 -96 q0 -53 -25 -102 q-24 -47 -66 -95 q-34 -39 -120 -125 l-40 -39 l204 0 q19 0 24 1 q6 1 13 8 l11 0 l0 -102 l-387 0 l0 82 Z" /><glyph glyph-name="" unicode="4" d="M150 244 l126 0 l0 186 l-126 -186 ZM272 0 l0 154 l-238 0 l0 70 l270 399 l81 0 l0 -376 l83 0 l0 -94 l-83 0 l0 -153 l-113 0 Z" /><glyph glyph-name="" unicode="5" d="M150 159 q0 -2 -1 -2 q-1 0 -5 3 q-2 1 -4 4 l-1 1 l5 3 l6 -9 ZM135 169 l1 -1 q2 -2 3 -3 l-2 -2 q0 1 -1 3 q-1 2 -1 3 ZM266 418 q59 0 103 -26 q44 -26 68 -74 q24 -48 24 -117 q0 -66 -25 -115 q-24 -47 -73 -77 q-46 -28 -109 -28 q-138 0 -201 118 l83 64 l1 0 l1 -1 q13 -25 26 -42 q14 -18 35 -29 q22 -11 51 -11 q29 0 52 14 q20 12 35 42 q13 26 13 66 q0 58 -26 90 q-27 33 -70 33 q-30 0 -53 -15 q-25 -16 -45 -45 l-72 31 l23 327 l335 0 l0 -95 l-237 0 l-8 -121 q39 11 69 11 Z" /><glyph glyph-name="" unicode="8" d="M298 93 q19 9 32 31 q11 18 11 42 q0 36 -28 67 q-29 32 -74 48 q-35 -18 -57 -48 q-22 -29 -22 -64 q0 -23 12 -43 q12 -19 34 -32 q21 -12 46 -12 q24 0 46 11 ZM308 423 q17 26 17 51 q0 18 -9 33 q-9 15 -27 25 q-17 9 -36 9 q-20 0 -35 -9 q-17 -10 -25 -24 q-9 -15 -9 -32 q0 -53 82 -96 q26 18 42 43 ZM144 5 q-47 24 -74 65 q-28 44 -28 92 q0 48 32 94 q34 48 83 75 q-39 25 -63 63 q-23 36 -23 77 q0 46 25 84 q25 38 68 61 q43 23 92 23 q51 0 92 -22 q43 -23 66 -59 q24 -38 24 -81 q0 -39 -26 -79 q-26 -39 -65 -64 q49 -28 81 -74 q31 -44 31 -95 q0 -52 -28 -93 q-29 -43 -75 -66 q-50 -25 -106 -25 q-58 0 -106 24 Z" /><glyph glyph-name="" unicode=":" d="M196 -4 q-16 9 -27 24 q-10 14 -10 34 q0 18 11 34 q13 18 27 26 q17 9 36 9 q17 0 35 -9 q19 -10 29 -25 q11 -17 11 -35 q0 -20 -10 -34 q-11 -15 -28 -24 q-18 -9 -37 -9 q-21 0 -37 9 ZM197 308 q-17 9 -27 25 q-11 17 -11 34 q0 17 11 34 q10 16 27 25 q17 9 36 9 q17 0 35 -9 q19 -9 29 -24 q11 -16 11 -35 q0 -18 -10 -34 q-10 -16 -28 -25 q-18 -9 -37 -9 q-19 0 -36 9 Z" /><glyph glyph-name="" unicode=";" d="M141 -118 q26 23 47 54 q19 28 19 44 q0 5 -4 9 l-13 13 q-16 16 -22 24 q-9 12 -9 26 q0 20 9 36 q8 15 26 25 q16 9 39 9 q20 0 40 -12 q19 -12 31 -33 q12 -21 12 -47 q0 -40 -30 -89 q-29 -48 -88 -110 l-57 51 ZM197 308 q-17 9 -27 25 q-11 17 -11 34 q0 17 11 34 q10 16 27 25 q17 9 36 9 q17 0 35 -9 q19 -9 29 -24 q11 -16 11 -35 q0 -18 -10 -34 q-10 -16 -28 -25 q-18 -9 -37 -9 q-19 0 -36 9 Z" /><glyph glyph-name="" unicode="&lt;" d="M469 39 l-437 256 l0 58 l434 229 l0 -99 l-312 -160 l315 -177 l0 -107 Z" /><glyph glyph-name="" unicode="=" d="M41 190 l0 85 l423 0 l0 -85 l-423 0 ZM41 374 l0 85 l423 0 l0 -85 l-423 0 Z" /><glyph glyph-name="" unicode="&gt;" d="M37 39 l0 107 l314 177 l-313 160 l0 99 l436 -229 l0 -58 l-437 -256 Z" /><glyph glyph-name="" unicode="@" d="M311 235 q26 0 41 15 q15 15 21 46 q6 32 6 83 q-39 0 -67 -11 q-27 -10 -40 -28 q-13 -17 -13 -39 q0 -30 15 -48 q15 -18 37 -18 ZM158 24 q-61 37 -97 112 q-36 75 -36 181 q0 104 35 177 q34 72 92 108 q59 37 120 37 q95 0 148 -65 q53 -65 53 -195 l0 -216 l-91 0 l0 31 q-15 -18 -36 -28 q-21 -10 -47 -10 q-37 0 -69 18 q-30 17 -49 50 q-18 31 -18 70 q0 76 52 118 q51 40 160 42 q-5 49 -33 77 q-29 29 -73 29 q-38 0 -74 -28 q-36 -28 -57 -82 q-21 -54 -21 -132 q0 -79 25 -135 q26 -59 66 -87 q41 -29 92 -29 q61 0 108 41 l40 -74 q-37 -27 -72 -37 q-39 -11 -82 -11 q-74 0 -136 38 Z" /><glyph glyph-name="" unicode="a" d="M192 239 l116 0 l-57 207 l-59 -207 ZM374 0 l-44 161 l-160 0 l-45 -161 l-115 0 l208 623 l65 0 l208 -623 l-117 0 Z" /><glyph glyph-name="" unicode="c" d="M407 450 l-1 1 q-1 1 -3 5 l2 1 l2 -7 ZM393 464 q1 1 2 1 q1 0 4 -4 q2 -3 4 -5 l-5 -2 l-5 10 ZM395 159 l85 -55 q-34 -59 -87 -91 q-52 -31 -118 -31 q-71 0 -126 36 q-57 37 -88 110 q-32 75 -32 180 q0 117 37 190 q38 74 96 108 q57 33 122 33 q72 0 122 -37 q53 -39 81 -105 l-81 -39 l-1 -1 l0 1 q-20 52 -49 71 q-31 20 -69 20 q-73 0 -107 -63 q-35 -64 -35 -173 q0 -71 17 -123 q17 -53 50 -86 q32 -32 70 -32 q64 0 113 87 Z" /><glyph glyph-name="" unicode="d" d="M191 88 q87 0 130 55 q43 55 43 161 q0 226 -163 226 l-48 0 l0 -442 l38 0 ZM44 623 l161 0 q81 0 127 -21 q47 -21 80 -66 q64 -86 64 -229 q0 -149 -68 -227 q-69 -80 -215 -80 l-149 0 l0 623 Z" /><glyph glyph-name="" unicode="e" d="M56 0 l0 623 l406 0 l0 -96 l-297 0 l0 -154 l246 0 l0 -98 l-246 0 l0 -179 l295 0 l0 -96 l-404 0 Z" /><glyph glyph-name="" unicode="f" d="M68 0 l0 623 l387 0 l0 -95 l-275 0 l0 -146 l222 0 l0 -94 l-222 0 l0 -288 l-112 0 Z" /><glyph glyph-name="" unicode="i" d="M73 0 l0 93 l121 0 l0 437 l-115 0 l0 93 l348 0 l0 -93 l-121 0 l0 -438 l126 0 l0 -92 l-359 0 Z" /><glyph glyph-name="" unicode="o" d="M317 102 q25 28 41 87 q15 56 15 130 q0 69 -15 121 q-15 53 -41 80 q-27 29 -64 29 q-37 0 -64 -29 q-26 -27 -41 -80 q-15 -52 -15 -121 q0 -75 15 -130 q16 -59 41 -87 q27 -30 64 -30 q37 0 64 30 ZM126 22 q-52 39 -81 113 q-28 72 -28 178 q0 103 28 175 q28 73 81 112 q52 39 127 39 q74 0 127 -39 q53 -39 81 -112 q28 -72 28 -175 q0 -106 -28 -178 q-29 -74 -81 -113 q-54 -40 -127 -40 q-73 0 -127 40 Z" /><glyph glyph-name="" unicode="p" d="M258 347 q51 0 74 23 q24 24 24 63 q0 41 -24 66 q-24 25 -73 25 l-95 0 l0 -177 l94 0 ZM50 623 l211 0 q72 0 118 -25 q47 -26 69 -67 q23 -43 23 -95 q0 -53 -22 -94 q-23 -43 -68 -66 q-47 -24 -115 -24 l-102 0 l0 -252 l-114 0 l0 623 Z" /><glyph glyph-name="" unicode="r" d="M251 353 q47 0 72 23 q24 22 24 61 q0 44 -23 65 q-24 22 -73 22 l-90 0 l0 -171 l90 0 ZM47 623 l197 0 q113 0 165 -49 q53 -50 53 -137 q0 -35 -15 -69 q-15 -34 -42 -60 q-28 -27 -62 -37 l146 -271 l-126 0 l-129 258 l-73 0 l0 -258 l-114 0 l0 623 Z" /><glyph glyph-name="" unicode="t" d="M189 0 l0 526 l-169 0 l0 97 l459 0 l0 -97 l-176 0 l0 -526 l-114 0 Z" /><glyph glyph-name="" unicode="u" d="M92 48 q-55 63 -55 172 l0 403 l120 0 l0 -11 q-6 -8 -7 -13 q-2 -11 -1 -24 l0 -356 q0 -68 23 -105 q22 -35 78 -35 q58 0 80 36 q23 37 23 107 l0 401 l110 0 l0 -400 q0 -117 -57 -177 q-57 -60 -157 -60 q-103 0 -157 62 Z" /><glyph glyph-name="" unicode="x" d="M21 0 l168 318 l-166 305 l122 0 l108 -204 l105 204 l116 0 l-155 -304 l175 -319 l-126 0 l-114 214 l-111 -214 l-122 0 Z" /><glyph glyph-name="" unicode="y" d="M201 0 l0 246 l-192 377 l125 0 l128 -252 l114 252 l121 0 l-178 -378 l0 -245 l-118 0 Z" /><glyph glyph-name="" unicode="a" d="M304 104 q30 33 34 99 l-22 0 q-85 0 -126 -19 q-39 -18 -39 -58 q0 -27 19 -40 q19 -13 55 -13 q51 0 79 31 ZM386 436 q56 -47 56 -152 l0 -284 l-107 0 l0 42 q-26 -24 -65 -40 q-35 -14 -81 -14 q-73 0 -111 36 q-38 36 -38 97 q0 50 32 85 q34 37 90 54 q60 18 142 18 l34 0 q-4 60 -30 87 q-24 26 -75 26 q-31 0 -67 -17 q-35 -17 -64 -47 l-57 74 q42 39 95 61 q49 20 99 20 q92 0 147 -46 Z" /><glyph glyph-name="" unicode="b" d="M300 93 q24 16 38 49 q16 37 16 86 q0 72 -26 114 q-27 44 -79 44 q-49 0 -69 -40 q-19 -38 -19 -107 q0 -86 23 -123 q23 -38 68 -38 q26 0 48 15 ZM198 0 q-31 15 -55 45 l-15 -45 l-78 0 l0 675 l120 0 l0 -11 q-5 -6 -6 -13 q-2 -10 -2 -24 l0 -200 q20 23 50 37 q27 13 58 13 q54 0 99 -27 q44 -26 71 -79 q27 -52 27 -128 q0 -81 -29 -141 q-29 -59 -74 -88 q-45 -29 -98 -29 q-36 0 -68 15 Z" /><glyph glyph-name="" unicode="c" d="M402 306 l-1 0 q-1 0 -5 4 l-2 -3 l-9 7 l0 1 q0 1 1 1 q3 0 10 -6 l3 3 l-1 0 q-20 34 -50 53 q-29 18 -73 18 q-33 0 -62 -20 q-29 -20 -45 -55 q-16 -35 -16 -82 q0 -42 16 -77 q16 -34 42 -52 q27 -18 64 -18 q34 0 62 14 q32 16 57 48 l65 -75 q-37 -41 -85 -63 q-44 -20 -99 -20 q-67 0 -122 32 q-54 32 -84 87 q-30 55 -30 126 q0 69 30 126 q29 56 84 89 q54 33 123 33 q61 0 108 -23 q51 -25 79 -67 l-63 -73 l0 -1 q3 -6 3 -7 Z" /><glyph glyph-name="" unicode="d" d="M337 239 q0 68 -19 107 q-19 40 -70 40 q-53 0 -79 -44 q-26 -44 -26 -114 q0 -52 15 -86 q14 -32 39 -49 q23 -15 48 -15 q92 0 92 161 ZM128 12 q-44 27 -72 82 q-26 52 -26 132 q0 77 27 134 q27 56 73 87 q45 30 98 30 q29 0 58 -13 q32 -14 50 -34 l0 245 l122 0 l0 -11 q-5 -6 -6 -13 q-2 -10 -2 -24 l-2 -571 q0 -12 2 -30 q1 -12 9 -26 l-109 0 q-6 11 -8 24 q-1 7 -1 32 q-15 -35 -47 -53 q-32 -18 -65 -18 q-56 0 -101 27 Z" /><glyph glyph-name="" unicode="e" d="M345 284 q0 31 -11 54 q-12 25 -33 40 q-21 15 -49 15 q-42 0 -68 -29 q-28 -31 -32 -80 l193 0 ZM270 -16 q-67 0 -120 29 q-53 29 -83 84 q-30 56 -30 130 q0 75 29 133 q28 56 78 86 q51 31 114 31 q55 0 101 -26 q43 -24 71 -77 q27 -51 27 -125 q0 -5 -2 -33 l-1 -14 l-306 0 q7 -63 40 -96 q33 -33 78 -33 q32 0 65 15 q33 15 54 42 l62 -62 q-71 -84 -177 -84 Z" /><glyph glyph-name="" unicode="f" d="M427 546 l2 2 l10 -5 l-2 -4 l-10 6 l0 1 ZM439 543 l2 3 l-1 0 q-30 27 -52 38 q-20 10 -47 10 q-45 0 -69 -27 q-24 -27 -24 -81 l0 -19 l143 0 l0 -89 l-143 0 l0 -378 l-109 0 l0 378 l-101 0 l0 89 l101 0 l0 18 q0 61 26 107 q25 45 70 68 q44 23 97 23 q90 0 155 -65 l-46 -71 l0 -1 q5 -5 5 -6 l-7 3 Z" /><glyph glyph-name="" unicode="g" d="M323 -74 q27 15 27 42 q0 16 -7 24 q-8 10 -24 14 q-15 4 -48 4 q-69 0 -105 7 q-12 -10 -18 -23 q-6 -12 -6 -28 q0 -29 28 -42 q30 -14 78 -14 q46 0 75 16 ZM196 384 q-18 -11 -26 -28 q-9 -18 -9 -38 q0 -22 9 -38 q10 -18 26 -28 q16 -10 36 -10 q20 0 36 10 q18 11 26 28 q9 18 9 38 q0 20 -9 38 q-8 17 -26 28 q-16 10 -36 10 q-20 0 -36 -10 ZM453 -18 q0 -42 -24 -78 q-23 -35 -73 -56 q-50 -21 -123 -21 q-89 0 -135 31 q-46 31 -46 84 q0 27 14 53 q12 23 40 41 q-43 24 -43 72 q0 26 14 48 q13 21 40 38 q-26 23 -41 56 q-15 33 -15 68 q0 44 23 84 q21 36 62 60 q40 23 86 23 q30 0 57 -9 q24 -8 49 -28 q25 13 56 22 q32 9 64 9 q12 0 15 -1 l12 -85 q-25 5 -49 5 q-30 0 -51 -6 q18 -35 18 -74 q0 -44 -23 -84 q-21 -36 -62 -60 q-40 -23 -86 -23 q-36 0 -69 15 q-7 -8 -9 -13 q-2 -4 -2 -14 q0 -18 34 -27 q38 -10 116 -10 q151 0 151 -120 Z" /><glyph glyph-name="" unicode="h" d="M60 675 l121 0 l0 -11 q-6 -8 -7 -13 q-2 -11 -1 -24 l0 -208 q25 29 57 43 q33 15 65 15 q75 0 117 -47 q41 -45 41 -147 l0 -283 l-113 0 l0 282 q0 52 -18 78 q-18 25 -49 25 q-29 0 -51 -15 q-22 -15 -36 -41 q-13 -25 -13 -59 l0 -270 l-113 0 l0 675 Z" /><glyph glyph-name="" unicode="i" d="M89 0 l0 90 l112 0 l0 287 l-107 0 l0 90 l219 0 l0 -377 l102 0 l0 -90 l-326 0 ZM215 557 q-16 9 -25 24 q-10 17 -10 33 q0 30 20 48 q20 18 50 18 q18 0 34 -9 q16 -9 26 -25 q10 -17 10 -32 q0 -16 -10 -33 q-9 -15 -26 -24 q-16 -9 -34 -9 q-18 0 -35 9 Z" /><glyph glyph-name="" unicode="j" d="M273 557 q-16 9 -25 24 q-10 17 -10 33 q0 30 20 48 q20 18 50 18 q18 0 34 -9 q16 -9 26 -25 q10 -17 10 -32 q0 -16 -10 -33 q-9 -15 -26 -24 q-16 -9 -34 -9 q-18 0 -35 9 ZM85 -15 l0 1 l1 0 l2 -1 l2 -2 l3 3 l9 -7 q0 -1 -1 -2 q-2 0 -11 6 l-2 -3 q-3 3 -3 5 ZM374 467 l0 -434 q0 -73 -24 -119 q-24 -46 -66 -69 q-41 -22 -95 -22 q-51 0 -89 19 q-40 20 -74 57 l61 80 l1 1 l1 -1 q40 -61 100 -61 q36 0 54 24 q18 24 18 77 l0 357 l-162 0 l0 91 l275 0 Z" /><glyph glyph-name="" unicode="k" d="M211 211 l-38 -36 l0 -175 l-113 0 l0 675 l121 0 l0 -11 q-6 -8 -7 -13 q-2 -11 -1 -24 l0 -332 l179 177 q38 -8 57 -8 l73 0 l-191 -184 l211 -279 l-137 -5 l-154 215 Z" /><glyph glyph-name="" unicode="l" d="M67 0 l0 87 l128 0 l0 501 l-122 0 l0 87 l235 0 l0 -588 l127 0 l0 -87 l-368 0 Z" /><glyph glyph-name="" unicode="m" d="M32 472 l96 0 l0 -29 q16 22 38 33 q22 11 44 11 q26 0 46 -13 q20 -13 34 -43 q18 29 40 42 q23 14 55 14 q52 0 73 -35 q20 -33 20 -107 l0 -345 l-104 0 l0 326 q0 41 -7 56 q-8 17 -23 17 q-38 0 -38 -92 l0 -307 l-103 0 l0 321 q0 43 -8 61 q-8 17 -21 17 q-19 0 -30 -20 q-11 -20 -11 -69 l0 -310 l-101 0 l0 472 Z" /><glyph glyph-name="" unicode="n" d="M60 467 l113 0 l0 -48 q28 29 59 43 q34 15 74 15 q65 0 106 -47 q40 -46 40 -147 l0 -283 l-112 0 l0 282 q0 52 -20 78 q-19 25 -57 25 q-24 0 -45 -9 q-19 -8 -32 -29 q-13 -21 -13 -47 l0 -300 l-113 0 l0 467 Z" /><glyph glyph-name="" unicode="o" d="M308 94 q24 20 38 56 q14 37 14 83 q0 47 -14 83 q-13 33 -38 52 q-25 19 -57 19 q-31 0 -56 -19 q-23 -17 -37 -53 q-14 -36 -14 -82 q0 -49 13 -84 q13 -36 37 -55 q25 -20 57 -20 q32 0 57 20 ZM251 -16 q-61 0 -113 32 q-52 32 -80 88 q-29 58 -29 129 q0 70 29 124 q31 57 81 88 q52 32 112 32 q60 0 112 -32 q50 -31 81 -88 q29 -54 29 -124 q0 -71 -29 -129 q-28 -56 -80 -88 q-52 -32 -113 -32 Z" /><glyph glyph-name="" unicode="p" d="M310 94 q22 16 36 53 q14 37 14 90 q0 66 -23 107 q-23 41 -72 41 q-51 0 -75 -43 q-23 -42 -23 -115 q0 -74 25 -113 q24 -37 66 -37 q29 0 52 17 ZM54 467 l108 0 l0 -58 q20 34 52 52 q29 16 68 16 q51 0 95 -29 q43 -28 69 -84 q26 -57 26 -133 q0 -82 -26 -135 q-27 -55 -70 -83 q-43 -28 -93 -28 q-38 0 -67 16 q-30 17 -49 50 l0 -218 l-112 0 l-1 634 Z" /><glyph glyph-name="" unicode="q" d="M310 118 q23 37 23 117 q0 80 -25 115 q-26 36 -70 36 q-26 0 -48 -18 q-22 -18 -35 -51 q-13 -33 -13 -79 q0 -45 14 -82 q14 -38 36 -57 q23 -20 50 -20 q44 0 68 39 ZM335 32 q-18 -21 -49 -35 q-29 -13 -60 -13 q-53 0 -99 32 q-43 30 -71 89 q-27 57 -27 129 q0 74 25 128 q25 54 71 85 q45 30 102 30 q29 0 61 -13 q32 -13 51 -35 l0 38 l108 0 l0 -634 l-112 0 l0 199 Z" /><glyph glyph-name="" unicode="r" d="M405 325 q1 0 2 -1 q1 0 3 -1 l6 -3 l3 5 q3 -4 3 -7 l-1 0 q-1 0 -2 1 q-1 1 -3 1 l0 -2 l-11 5 l0 2 ZM419 325 l-1 1 q-19 30 -40 43 q-20 13 -50 13 q-35 0 -64 -17 q-30 -17 -46 -48 q-16 -31 -16 -73 l0 -244 l-113 0 l0 467 l115 0 l0 -67 q19 36 54 56 q36 21 81 21 q36 0 69 -13 q35 -14 61 -38 l-50 -101 Z" /><glyph glyph-name="" unicode="s" d="M90 151 l0 1 l1 0 l5 -3 l2 4 l10 -6 l0 -1 q0 -1 -1 -1 q-3 0 -5 1 l-6 3 l-2 -3 q-4 4 -4 5 ZM385 318 l-2 1 l-4 2 l3 4 q3 -6 3 -7 ZM368 326 q0 1 1 1 q1 0 5 -3 q2 -1 3 -1.5 q1 -0.5 2 -1.5 l-2 -2 l-9 6 l0 1 ZM386 244 q33 -18 48 -43 q15 -25 15 -63 q0 -42 -24 -76 q-25 -35 -66 -56 q-44 -22 -94 -22 q-71 0 -123 18 q-49 17 -95 61 l47 82 l0 1 l1 -1 q35 -38 74 -54 q42 -17 97 -17 q80 0 80 53 q0 15 -10 28 q-9 12 -30 21 q-28 12 -60 21 q-80 21 -126 53 q-44 31 -44 88 q0 41 22 72 q22 31 62 49 q40 18 96 18 q55 0 100 -18 q46 -18 83 -54 l-57 -79 l-1 0 q-21 28 -53 45 q-31 16 -70 16 q-31 0 -50 -10 q-20 -11 -20 -28 q0 -14 11 -27 q11 -12 33 -21 q18 -7 64 -22 q59 -18 90 -35 Z" /><glyph glyph-name="" unicode="t" d="M455 42 q-38 -27 -76 -42 q-36 -14 -85 -14 q-73 0 -112 43 q-38 42 -38 148 q0 27 3 59 l8 140 l-101 0 l2 91 l105 0 l6 109 l123 21 l2 -12 l-1 -1 q-1 -1 -2 -2.5 q-1 -1.5 -2 -3.5 q-5 -6 -7 -12 q-2 -5 -2 -19 l-7 -80 l143 0 l-2 -91 l-143 0 l-11 -133 q-1 -33 -3 -55 q0 -62 15 -86 q16 -25 48 -25 q30 0 56 12 q26 12 57 39 l24 -86 Z" /><glyph glyph-name="" unicode="u" d="M206 -20 q-77 0 -116 46 q-39 46 -39 149 l0 292 l110 0 l0 -292 q0 -51 18 -77 q18 -26 49 -26 q30 0 51 14 q23 15 36 42 q13 26 13 59 l0 280 l113 0 l0 -391 q0 -36 1 -46 q2 -15 9 -30 l-109 0 q-7 13 -8 24 q-2 16 -2 30 q-19 -34 -56 -54 q-37 -20 -70 -20 Z" /><glyph glyph-name="" unicode="v" d="M458 467 q-2 -42 -15 -82 q-19 -57 -38 -104 l-111 -281 l-92 0 l-177 467 l111 0 l117 -342 l67 169 q24 67 30 95 q9 39 9 78 l99 0 Z" /><glyph glyph-name="" unicode="w" d="M8 467 l110 0 l47 -330 l58 276 l69 0 l66 -275 q15 99 19 167 q5 87 5 131 l0 31 l106 0 q-16 -140 -32 -241 q-21 -133 -40 -226 l-99 0 l-61 260 l-58 -260 l-102 0 l-88 467 Z" /><glyph glyph-name="" unicode="x" d="M25 0 l161 237 l-159 230 l126 0 l95 -151 l91 151 l121 0 l-149 -227 l168 -240 l-128 0 l-102 158 l-96 -158 l-128 0 Z" /><glyph glyph-name="" unicode="y" d="M61 -49 q0 -1 -2 -1 q-1 0 -11 3 l2 5 l11 -5 l0 -2 ZM454 467 q-2 -45 -12 -81 q-12 -42 -33 -99 l-116 -320 q-29 -78 -69 -111 q-40 -33 -99 -33 q-32 0 -59 11 q-25 10 -56 35 l36 80 l1 1 l-5 5 l6 -2 l-1 -3 l1 -1 l10 -8 q18 -15 34 -24 q14 -8 30 -8 q24 0 46 25 q20 22 40 68 l-177 465 l109 0 l117 -328 l61 167 q13 40 22 80 q8 37 8 67 q0 11 -1 14 l107 0 Z" /><glyph glyph-name="" unicode="z" d="M43 70 l242 302 l-223 0 l0 95 l373 0 l0 -70 l-239 -303 l213 0 q13 0 23 2 q6 1 14 7 l11 0 l0 -103 l-414 0 l0 70 Z" /><glyph glyph-name="" unicode="{" d="M229 -142 q-47 17 -72 56 q-25 40 -25 112 l3 84 q0 48 -15 66 q-15 18 -43 18 l-42 0 l0 89 l41 0 q31 0 46 19 q15 20 15 61 l-2 94 q0 89 49 135 q48 45 142 45 l81 0 l0 -90 l-98 0 q-32 0 -47 -20 q-16 -21 -16 -60 l2 -93 q0 -45 -19 -79 q-20 -36 -52 -56 q30 -19 50 -57 q19 -37 19 -86 l-2 -70 q0 -50 22 -74 q21 -23 70 -23 l70 0 l0 -88 l-56 0 q-73 0 -121 17 Z" /><glyph glyph-name="" unicode="}" d="M56 -159 l0 88 l70 0 q49 0 70 23 q22 24 22 74 l-2 70 q0 48 19 85 q21 40 50 58 q-35 21 -53 56 q-18 34 -18 79 l2 93 q0 39 -16 60 q-15 20 -47 20 l-98 0 l0 90 l81 0 q94 0 142 -45 q49 -46 49 -135 l-2 -94 q0 -41 15 -61 q15 -19 46 -19 l41 0 l0 -89 l-42 0 q-28 0 -43 -18 q-15 -18 -15 -66 l3 -84 q0 -72 -25 -112 q-25 -39 -72 -56 q-48 -17 -121 -17 l-56 0 Z" /><glyph glyph-name="" unicode="&#x30a3;" d="M175 288 q223 32 414 153 q78 51 130 103 l65 -78 q-88 -86 -208 -150 l0 -361 l-117 0 l0 305 q-131 -55 -268 -73 l-16 101 Z" /><glyph glyph-name="" unicode="&#x30a6;" d="M126 598 l286 0 l0 136 l121 0 l0 -136 l297 0 l0 -170 q0 -328 -306 -429 q-99 -32 -224 -38 l-17 109 q316 17 395 197 q30 68 30 161 l0 63 l-464 0 l0 -200 l-118 0 l0 307 Z" /><glyph glyph-name="" unicode="&#x30af;" d="M675 519 l-303 0 q-57 -146 -180 -263 l-86 73 q133 130 178 311 q11 39 15 76 l118 -6 q-5 -43 -13 -82 l402 0 l0 -21 q0 -331 -160 -484 q-146 -137 -450 -162 l-18 109 q256 26 366 124 q113 99 131 315 l0 10 Z" /><glyph glyph-name="" unicode="&#x30b5;" d="M80 558 l150 0 l0 155 l118 0 l0 -155 l255 0 l0 155 l123 0 l0 -155 l150 0 l0 -109 l-150 0 l0 -51 q0 -220 -101 -321 q-104 -99 -344 -120 l-22 109 q189 18 263 81 q68 58 79 192 q2 38 2 59 l0 51 l-255 0 l0 -185 l-118 0 l0 185 l-150 0 l0 109 Z" /><glyph glyph-name="" unicode="&#x30b9;" d="M187 555 l0 112 l582 0 l0 -112 q-66 -145 -176 -267 q141 -127 254 -241 l-83 -82 q-143 143 -252 241 q-159 -147 -351 -236 l-54 100 q323 159 486 414 q24 36 41 71 l-447 0 Z" /><glyph glyph-name="" unicode="&#x30ba;" d="M162 546 l0 112 l499 0 q-7 13 -32 59 l86 43 q43 -82 69 -134 l-39 -18 l0 -62 q-64 -143 -176 -268 q125 -113 254 -240 l-83 -83 q-119 119 -253 242 q-160 -147 -350 -236 l-55 100 q322 159 486 414 q24 36 41 71 l-447 0 ZM924 637 l-87 -42 q-66 126 -71 135 l87 44 q48 -88 71 -137 Z" /><glyph glyph-name="" unicode="&#x30c9;" d="M672 522 l-103 -49 q-43 84 -85 158 l103 51 q47 -85 85 -160 ZM833 555 l-105 -50 q-23 46 -86 161 l104 53 q54 -99 87 -164 ZM211 694 l128 0 l0 -254 q235 -56 495 -152 l-38 -115 q-225 84 -457 142 l0 -372 l-128 0 l0 751 Z" /><glyph glyph-name="" unicode="&#x30d5;" d="M132 652 l698 0 l0 -21 q0 -379 -216 -538 q-143 -105 -384 -127 l-22 113 q269 26 381 154 q93 105 110 304 l-567 0 l0 115 Z" /><glyph glyph-name="" unicode="&#x30d7;" d="M746 774 q85 0 137 -64 q41 -50 41 -114 q0 -82 -63 -136 q-36 -30 -82 -39 q-55 -291 -306 -399 q-112 -48 -277 -65 l-22 113 q269 26 383 156 q72 82 98 218 q-49 30 -72 84 l-478 0 l0 115 l470 0 q21 76 90 110 q37 21 81 21 ZM746 496 q54 0 83 45 q17 26 18 55 q0 54 -45 83 q-26 17 -56 17 q-53 0 -82 -44 q-17 -26 -18 -56 q0 -54 45 -83 q26 -17 55 -17 Z" /><glyph glyph-name="" unicode="&#x30e9;" d="M114 440 l717 0 l0 -21 q0 -340 -343 -431 q-106 -27 -228 -34 l-19 110 q317 17 415 164 q30 46 42 102 l-584 0 l0 110 ZM180 567 l0 109 l596 0 l0 -109 l-596 0 Z" /><glyph glyph-name="" unicode="&#x30ea;" d="M642 689 l130 0 l0 -249 q0 -278 -166 -396 q-112 -80 -309 -99 l-26 112 q205 25 286 105 q79 76 85 245 l0 30 l0 252 ZM184 279 l0 410 l127 0 l0 -410 l-127 0 Z" /><glyph glyph-name="" unicode="&#x30eb;" d="M230 685 l123 0 l0 -185 q0 -264 -45 -374 q-35 -88 -123 -140 q-22 -14 -52 -28 l-65 102 q80 40 111 86 q39 57 47 201 q4 52 4 153 l0 185 ZM598 94 q116 30 161 151 q24 65 31 150 l116 -16 q-38 -411 -413 -413 l-21 0 l0 719 l126 0 l0 -591 Z" /><glyph glyph-name="" unicode="&#x30ed;" d="M248 -6 l-128 0 l0 668 l716 0 l0 -668 l-588 0 ZM248 105 l460 0 l0 446 l-460 0 l0 -446 Z" /><glyph glyph-name="" unicode="&#x30ef;" d="M129 662 l701 0 l0 -195 q0 -431 -457 -494 q-46 -6 -98 -9 l-17 112 q272 16 372 135 q76 89 76 256 l0 79 l-456 0 l0 -221 l-121 0 l0 337 Z" /><glyph glyph-name="" unicode="&#x30f3;" d="M139 573 l59 109 q131 -63 282 -146 l-61 -107 q-127 70 -280 144 ZM754 595 l115 -25 q-74 -412 -436 -536 q-112 -38 -255 -52 l-18 118 q318 32 461 199 q96 112 133 296 Z" /><glyph glyph-name="" unicode="&#x30fc;" d="M187 276 l-106 53 l48 102 l67 -33 q2 0 24 -9 l25 0 l609 0 l0 -122 l-621 0 q-1 0 -25 2 l-21 7 Z" /><glyph glyph-name="" unicode="&#x526f;" d="M221 436 l193 0 l0 66 l-193 0 l0 -66 ZM221 359 l-113 0 l0 225 l417 0 l0 -225 l-304 0 ZM367 172 l77 0 l0 60 l-77 0 l0 -60 ZM367 98 l0 -62 l77 0 l0 62 l-77 0 ZM191 98 l0 -62 l78 0 l0 62 l-78 0 ZM191 172 l78 0 l0 60 l-78 0 l0 -60 ZM191 -47 l0 -34 l-112 0 l0 403 l475 0 l0 -403 l-110 0 l0 34 l-253 0 ZM76 622 l0 98 l487 0 l0 -98 l-487 0 ZM594 115 l0 577 l107 0 l0 -577 l-107 0 ZM765 728 l113 0 l0 -659 q0 -95 -16 -120 q-17 -26 -76 -27 q-10 -1 -35 -1 q-51 0 -120 4 l-6 107 q103 -5 105 -5 q27 0 31 7 q4 7 4 35 l0 659 Z" /><glyph glyph-name="" unicode="&#x696d;" d="M565 443 q19 37 39 87 l-247 0 q11 -27 22.5 -55.5 q11.5 -28.5 12.5 -31.5 l173 0 ZM869 198 l0 -90 l-250 0 q117 -52 290 -92 l-52 -92 q-198 59 -317 129 l0 -138 l-124 0 l0 138 q-123 -71 -317 -129 l-52 92 q174 40 290 92 l-250 0 l0 90 l329 0 l0 40 l-290 0 l0 81 l290 0 l0 40 l-320 0 l0 84 l173 0 q-3 7 -15 37.5 q-12 30.5 -20 49.5 l-156 0 l0 96 l93 0 q-23 40 -42 75 l98 33 q36 -56 61 -108 l49 0 l0 120 l107 0 l0 -120 l68 0 l0 120 l107 0 l0 -120 l54 0 q36 63 55 108 l100 -27 q-32 -63 -41 -81 l91 0 l0 -96 l-152 0 q-16 -46 -36 -87 l170 0 l0 -84 l-320 0 l0 -40 l290 0 l0 -81 l-290 0 l0 -40 l329 0 Z" /><glyph glyph-name="" unicode="&#x6e0b;" d="M259 7 q162 58 257 129 l46 -101 q-109 -82 -255 -131 l-48 103 ZM84 654 l67 81 q76 -55 152 -122 l-68 -82 q-68 62 -151 123 ZM212 315 q-85 78 -168 139 l67 81 q95 -68 163 -131 l0 56 l85 0 l0 245 l115 0 l0 -245 l90 0 l0 295 l121 0 l0 -91 l194 0 l0 -100 l-194 0 l0 -104 l224 0 l0 -103 l-89 0 l62 -69 q-95 -85 -212 -144 q134 -61 238 -137 l-62 -103 q-103 77 -251 146 l64 98 l1 0 l-66 87 q103 54 190 122 l-383 0 q91 -54 169 -120 l-75 -90 q-91 79 -195 138 l58 72 l-84 0 l0 33 l-62 -75 ZM308 217 q-54 -163 -139 -287 q-3 -3 -7 -9 l-94 61 q87 126 142 283 l98 -48 Z" /><glyph glyph-name="" unicode="&#x7cfb;" d="M678 392 l98 44 q75 -125 136 -243 l-95 -43 q-22 42 -30 56 l-249 -9 l0 -273 l-125 0 l0 268 l-344 -13 l-3 100 l216 8 l41 27 q-103 96 -195 174 l78 74 q22 -18 66 -57 q51 36 124 94 q-124 -5 -258 -6 l-7 100 q384 0 647 41 q18 4 27 5 l24 -97 q-118 -20 -260 -32 q-97 -86 -218 -175 q3 -2 7 -6 q4 -4 9.5 -9.5 q5.5 -5.5 10.5 -9.5 q9 -8 21 -19 q12 -11 16 -14 q150 107 281 222 l83 -75 q-146 -127 -299 -230 l251 9 q-14 23 -31.5 53 q-17.5 30 -21.5 36 ZM65 14 q128 74 222 160 l71 -73 q-106 -98 -232 -170 l-61 83 ZM586 101 l64 82 q133 -87 240 -173 l-64 -82 q-125 99 -240 173 Z" /><glyph glyph-name="" unicode="&#x8c37;" d="M666 303 q-102 74 -188 163 q-83 -86 -188 -163 l376 0 ZM290 -39 l0 -43 l-121 0 l0 307 q-1 -1 -26.5 -15 q-25.5 -14 -40.5 -22 l-47 97 q183 100 318 227 q10 9 29 28 l152 0 q139 -137 308 -233 q6 -3 19 -11 q13 -8 20 -11 l-47 -97 q-40 21 -67 37 l0 -307 l-121 0 l0 43 l-376 0 ZM399 662 q-103 -130 -283 -219 l-57 92 q157 84 257 197 l83 -70 ZM813 442 q-122 111 -270 212 l71 86 q153 -104 273 -216 l-74 -82 ZM666 55 l0 152 l-376 0 l0 -152 l376 0 Z" /></font>
</defs>
</svg>
